<svg width="24" height="26" viewBox="0 0 24 26" fill="none" xmlns="http://www.w3.org/2000/svg">
<mask id="path-1-outside-1_355_265" maskUnits="userSpaceOnUse" x="-0.0297852" y="-0.727264" width="24" height="26" fill="black">
<rect fill="white" x="-0.0297852" y="-0.727264" width="24" height="26"/>
<path d="M1.7884 1.00001H5.01567L11.4702 11.8636H11.7429L18.1975 1.00001H21.4248L13.0157 14.6818V24.2727H10.1975V14.6818L1.7884 1.00001Z"/>
</mask>
<path d="M1.7884 1.00001H5.01567L11.4702 11.8636H11.7429L18.1975 1.00001H21.4248L13.0157 14.6818V24.2727H10.1975V14.6818L1.7884 1.00001Z" fill="#6E1E9D"/>
<path d="M1.7884 1.00001V7.62939e-06H6.55651e-07L0.936447 1.52363L1.7884 1.00001ZM5.01567 1.00001L5.87538 0.48922L5.58471 7.62939e-06H5.01567V1.00001ZM11.4702 11.8636L10.6105 12.3744L10.9012 12.8636H11.4702V11.8636ZM11.7429 11.8636V12.8636H12.312L12.6026 12.3744L11.7429 11.8636ZM18.1975 1.00001V7.62939e-06H17.6284L17.3378 0.48922L18.1975 1.00001ZM21.4248 1.00001L22.2767 1.52363L23.2132 7.62939e-06H21.4248V1.00001ZM13.0157 14.6818L12.1637 14.1582L12.0157 14.3991V14.6818H13.0157ZM13.0157 24.2727V25.2727H14.0157V24.2727H13.0157ZM10.1975 24.2727H9.19749V25.2727H10.1975V24.2727ZM10.1975 14.6818H11.1975V14.3991L11.0494 14.1582L10.1975 14.6818ZM1.7884 1.00001V2.00001H5.01567V1.00001V7.62939e-06H1.7884V1.00001ZM5.01567 1.00001L4.15596 1.5108L10.6105 12.3744L11.4702 11.8636L12.3299 11.3529L5.87538 0.48922L5.01567 1.00001ZM11.4702 11.8636V12.8636H11.7429V11.8636V10.8636H11.4702V11.8636ZM11.7429 11.8636L12.6026 12.3744L19.0572 1.5108L18.1975 1.00001L17.3378 0.48922L10.8832 11.3529L11.7429 11.8636ZM18.1975 1.00001V2.00001H21.4248V1.00001V7.62939e-06H18.1975V1.00001ZM21.4248 1.00001L20.5728 0.476383L12.1637 14.1582L13.0157 14.6818L13.8676 15.2055L22.2767 1.52363L21.4248 1.00001ZM13.0157 14.6818H12.0157V24.2727H13.0157H14.0157V14.6818H13.0157ZM13.0157 24.2727V23.2727H10.1975V24.2727V25.2727H13.0157V24.2727ZM10.1975 24.2727H11.1975V14.6818H10.1975H9.19749V24.2727H10.1975ZM10.1975 14.6818L11.0494 14.1582L2.64035 0.476383L1.7884 1.00001L0.936447 1.52363L9.34554 15.2055L10.1975 14.6818Z" fill="black" mask="url(#path-1-outside-1_355_265)"/>
</svg>
